<?xml version="1.0" encoding="UTF-8"?>
<svg id="Layer_1" xmlns="http://www.w3.org/2000/svg" version="1.1" viewBox="0 0 1224 227.7">
  <!-- Generator: Adobe Illustrator 30.1.0, SVG Export Plug-In . SVG Version: 2.1.1 Build 136)  -->
  <defs>
    <style>
      .st0 {
        fill: #ff9e18;
      }

      .st1 {
        fill: #231f20;
        font-family: Helvetica-Bold, Helvetica;
        font-size: 30.8px;
        font-weight: 700;
      }

      .st2 {
        fill: #74c3d5;
      }

      .st3 {
        fill: #42a7c6;
      }

      .st4 {
        fill: #ff4713;
      }
    </style>
  </defs>
  <g>
    <path class="st0" d="M322.1,175.7h-32.9c0-31.2-17.9-50-38.6-71.7-22.3-23.5-47.7-50-47.7-94.5h32.9c0,31.3,17.9,50,38.6,71.8,22.3,23.5,47.7,50,47.7,94.4Z"/>
    <g>
      <path d="M392.2,54.3h46.5l22.3,77.6,23.2-77.6h45.4v121.5h-28.9v-98.1l-30.7,98.1h-23.1l-29.6-97.5v97.5h-25.1V54.3Z"/>
      <path d="M540.7,153c0-19.4,15.4-23.8,33.7-27.4,15-3.1,23.6-3.7,24.1-8.4v-.5c0-5.3-4.2-9.1-13.9-9.1s-14.8,4.9-15.4,11.9v1.5h-26.5c.4-20.1,16.1-33.3,42.3-33.3s40.4,10.6,40.4,35.5v52.7h-27.1v-11.9c-5.1,8.8-14.8,14.3-28,14.3s-29.6-9.9-29.6-25.1ZM598.5,142.4v-8.6c-4.2,2.2-10.4,3.5-16.3,4.9-7.7,2.2-13.7,4.8-13.7,12.1s3.8,9,10.8,9,18.3-4.6,19.2-17.4Z"/>
      <path d="M639.3,89.4h27.6v13.7c4.6-10.1,13.2-15.9,25.6-15.9,19,0,30.2,12.8,30.2,36.6v52h-27.8v-50.1c0-10.6-3.8-16.1-13.2-16.1s-14.6,7.3-14.6,20.9v45.4h-27.8v-86.3Z"/>
      <path d="M730.2,194.4c0-8.4,5.5-14.6,15.6-18.3-8.4-2.2-13.4-7.7-13.4-15s5.5-13.2,15.2-16.3c-8.2-5.7-13-14.5-13-24.7,0-18.8,17-32.7,40.4-32.7s26.5,5.7,33.1,14.8c3.1-8,9-12.8,17.7-12.8v24.1c-3.8-1.6-8.8-1.8-12.6,1.1.4,1.6.5,3.3.5,5.1,0,19.9-15.5,32.6-39.9,32.6s-9.9-.6-14.3-1.8c-3.8.4-6.4,2.2-6.4,4.6s3.8,4.9,10.1,4.9h22.5c26.5,0,40.8,9.7,40.8,27.4s-17.6,30.7-49.6,30.7-46.8-8.2-46.8-23.8ZM803.9,191.6c0-6.4-6-9.1-21-9.1h-16.8c-8.4.7-14.1,4-14.1,9.7s8.4,9.5,25.6,9.5,26.3-3.7,26.3-10.1ZM789.3,120.3v-.9c0-8.6-6-14.5-14.8-14.5s-14.6,6-14.6,14.5v1.1c0,8.6,5.7,14.1,14.6,14.1s14.8-5.3,14.8-14.3Z"/>
      <path d="M834.7,89.4h28v15c2.7-9.5,9.5-15.6,24.3-15.6h2v25.1h-10.2c-12.8,0-16.1,5.7-16.1,18.7v43.2h-28v-86.3Z"/>
      <path d="M891.6,132.7c0-27.1,18.3-45.2,46.6-45.2s46.5,18.1,46.5,45.2-18.5,44.8-47,44.8-46.1-17.9-46.1-44.8ZM956.3,133.5v-1.3c0-15.9-6.6-24.5-18.3-24.5s-18.1,8.6-18.1,24.5v1.3c0,15.7,6.4,24,17.9,24s18.5-8.4,18.5-24Z"/>
      <path d="M983.2,89.4h28.9l18.7,56.2,17.2-56.2h25.2l-31.8,86.7h-25.2l-32.9-86.7Z"/>
      <path d="M1071,133.1c0-27.3,17.9-45.5,45-45.5s43.7,17.2,43.7,45.7v6.8h-62c1.3,11.7,8.8,17.7,19.9,17.7s16.6-5.5,19.2-12.6l22.5,6.8c-5.9,15.7-18.7,25.6-42.8,25.6s-45.5-17.2-45.5-44.5ZM1132.5,124c-.7-11.5-6.2-17.2-16.8-17.2s-16.6,6.2-17.9,17.2h34.8Z"/>
    </g>
    <path class="st4" d="M136.5,175.7h-32.9c0-44.4,25.3-71,47.7-94.4,20.7-21.7,38.6-40.5,38.6-71.8h32.9c0,44.4-25.3,71-47.7,94.5-20.7,21.7-38.6,40.5-38.6,71.7Z"/>
    <path class="st2" d="M230.5,175.7h-32.9c0-31.2-17.9-50-38.6-71.7-22.3-23.5-47.7-50-47.7-94.5h32.9c0,31.3,17.9,50,38.6,71.8,22.3,23.5,47.7,50,47.7,94.4Z"/>
    <path class="st3" d="M44.9,175.7H12c0-44.4,25.3-71,47.7-94.4,20.7-21.7,38.6-40.5,38.6-71.8h32.9c0,44.4-25.3,71-47.7,94.5-20.7,21.7-38.6,40.5-38.6,71.7Z"/>
  </g>
  <text class="st1" transform="translate(1159.2 82.8)"><tspan x="0" y="0">®</tspan></text>
</svg>