<?xml version="1.0" encoding="UTF-8"?>
<svg id="Layer_1" xmlns="http://www.w3.org/2000/svg" version="1.1" viewBox="0 0 849.4 792">
  <!-- Generator: Adobe Illustrator 30.1.0, SVG Export Plug-In . SVG Version: 2.1.1 Build 136)  -->
  <defs>
    <style>
      .st0 {
        fill: #231f20;
        font-family: Helvetica-Bold, Helvetica;
        font-size: 35.7px;
        font-weight: 700;
      }

      .st1 {
        fill: #ff9e18;
      }

      .st2 {
        fill: #74c3d5;
      }

      .st3 {
        fill: #42a7c6;
      }

      .st4 {
        fill: #ff4713;
      }
    </style>
  </defs>
  <g>
    <path class="st1" d="M762.6,592.5h-77.8c0-73.9-42.3-118.2-91.2-169.6-52.8-55.4-112.7-118.3-112.7-223.3h77.8c0,73.9,42.3,118.3,91.2,169.6,52.8,55.4,112.7,118.3,112.7,223.3Z"/>
    <path class="st4" d="M323.7,592.5h-77.8c0-105,59.9-167.8,112.7-223.3,49-51.4,91.2-95.8,91.2-169.6h77.8c0,105-59.9,167.8-112.7,223.3-48.9,51.4-91.2,95.7-91.2,169.6Z"/>
    <path class="st2" d="M546,592.5h-77.8c0-73.9-42.3-118.2-91.2-169.6-52.8-55.4-112.7-118.3-112.7-223.3h77.8c0,73.9,42.3,118.3,91.2,169.6,52.8,55.4,112.7,118.3,112.7,223.3Z"/>
    <path class="st3" d="M107.2,592.5H29.4c0-105,59.9-167.8,112.7-223.3,49-51.4,91.2-95.8,91.2-169.6h77.8c0,105-59.9,167.8-112.7,223.3-48.9,51.4-91.2,95.7-91.2,169.6Z"/>
  </g>
  <text class="st0" transform="translate(776.1 593.8)"><tspan x="0" y="0">®</tspan></text>
</svg>